<mxfile host="app.diagrams.net" modified="2023-04-25T07:46:54.342Z" agent="Mozilla/5.0 (Windows NT 10.0; Win64; x64) AppleWebKit/537.36 (KHTML, like Gecko) Chrome/112.0.0.0 Safari/537.36" etag="8oVcv7jdnaYZp4ohJcfR" version="21.2.1" type="github" pages="2">
  <diagram name="Page-1" id="LZT7wUZ_4pmAXvz5bYNA">
    <mxGraphModel dx="1050" dy="1615" grid="1" gridSize="10" guides="1" tooltips="1" connect="1" arrows="1" fold="1" page="1" pageScale="1" pageWidth="850" pageHeight="1100" math="0" shadow="0">
      <root>
        <mxCell id="0" />
        <mxCell id="1" parent="0" />
        <mxCell id="FSHCJqC_9t4m0_mm_uua-8" value="User" style="shape=table;startSize=30;container=1;collapsible=0;childLayout=tableLayout;strokeColor=default;fontSize=16;" vertex="1" parent="1">
          <mxGeometry x="30" y="-1060" width="440" height="275" as="geometry" />
        </mxCell>
        <mxCell id="FSHCJqC_9t4m0_mm_uua-9" value="" style="shape=tableRow;horizontal=0;startSize=0;swimlaneHead=0;swimlaneBody=0;strokeColor=inherit;top=0;left=0;bottom=0;right=0;collapsible=0;dropTarget=0;fillColor=none;points=[[0,0.5],[1,0.5]];portConstraint=eastwest;fontSize=16;" vertex="1" parent="FSHCJqC_9t4m0_mm_uua-8">
          <mxGeometry y="30" width="440" height="60" as="geometry" />
        </mxCell>
        <mxCell id="FSHCJqC_9t4m0_mm_uua-10" value="Field" style="shape=partialRectangle;html=1;whiteSpace=wrap;connectable=0;strokeColor=inherit;overflow=hidden;fillColor=none;top=0;left=0;bottom=0;right=0;pointerEvents=1;fontSize=16;" vertex="1" parent="FSHCJqC_9t4m0_mm_uua-9">
          <mxGeometry width="100" height="60" as="geometry">
            <mxRectangle width="100" height="60" as="alternateBounds" />
          </mxGeometry>
        </mxCell>
        <mxCell id="FSHCJqC_9t4m0_mm_uua-11" value="DataType" style="shape=partialRectangle;html=1;whiteSpace=wrap;connectable=0;strokeColor=inherit;overflow=hidden;fillColor=none;top=0;left=0;bottom=0;right=0;pointerEvents=1;fontSize=16;" vertex="1" parent="FSHCJqC_9t4m0_mm_uua-9">
          <mxGeometry x="100" width="150" height="60" as="geometry">
            <mxRectangle width="150" height="60" as="alternateBounds" />
          </mxGeometry>
        </mxCell>
        <mxCell id="FSHCJqC_9t4m0_mm_uua-12" value="Key" style="shape=partialRectangle;html=1;whiteSpace=wrap;connectable=0;strokeColor=inherit;overflow=hidden;fillColor=none;top=0;left=0;bottom=0;right=0;pointerEvents=1;fontSize=16;" vertex="1" parent="FSHCJqC_9t4m0_mm_uua-9">
          <mxGeometry x="250" width="190" height="60" as="geometry">
            <mxRectangle width="190" height="60" as="alternateBounds" />
          </mxGeometry>
        </mxCell>
        <mxCell id="FSHCJqC_9t4m0_mm_uua-13" value="" style="shape=tableRow;horizontal=0;startSize=0;swimlaneHead=0;swimlaneBody=0;strokeColor=inherit;top=0;left=0;bottom=0;right=0;collapsible=0;dropTarget=0;fillColor=none;points=[[0,0.5],[1,0.5]];portConstraint=eastwest;fontSize=16;" vertex="1" parent="FSHCJqC_9t4m0_mm_uua-8">
          <mxGeometry y="90" width="440" height="185" as="geometry" />
        </mxCell>
        <mxCell id="FSHCJqC_9t4m0_mm_uua-14" value="user_id&lt;br&gt;username&lt;br&gt;email&lt;br&gt;password&lt;br&gt;date_created&lt;br&gt;" style="shape=partialRectangle;html=1;whiteSpace=wrap;connectable=0;strokeColor=inherit;overflow=hidden;fillColor=none;top=0;left=0;bottom=0;right=0;pointerEvents=1;fontSize=16;" vertex="1" parent="FSHCJqC_9t4m0_mm_uua-13">
          <mxGeometry width="100" height="185" as="geometry">
            <mxRectangle width="100" height="185" as="alternateBounds" />
          </mxGeometry>
        </mxCell>
        <mxCell id="FSHCJqC_9t4m0_mm_uua-15" value="int&lt;br&gt;varchar(50)&lt;br&gt;varchar(50)&lt;br&gt;varchar(50)&lt;br&gt;datetime" style="shape=partialRectangle;html=1;whiteSpace=wrap;connectable=0;strokeColor=inherit;overflow=hidden;fillColor=none;top=0;left=0;bottom=0;right=0;pointerEvents=1;fontSize=16;" vertex="1" parent="FSHCJqC_9t4m0_mm_uua-13">
          <mxGeometry x="100" width="150" height="185" as="geometry">
            <mxRectangle width="150" height="185" as="alternateBounds" />
          </mxGeometry>
        </mxCell>
        <mxCell id="FSHCJqC_9t4m0_mm_uua-16" value="&lt;br&gt;primary key&lt;br&gt;&lt;br&gt;&lt;br&gt;&lt;table&gt;&lt;tbody&gt;&lt;tr&gt;&lt;td&gt;&lt;br&gt;&lt;/td&gt;&lt;td&gt;&lt;br&gt;&lt;/td&gt;&lt;td&gt;&lt;br&gt;&lt;/td&gt;&lt;/tr&gt;&lt;tr&gt;&lt;td&gt;&lt;br&gt;&lt;/td&gt;&lt;td&gt;&lt;br&gt;&lt;/td&gt;&lt;td&gt;&lt;br&gt;&lt;/td&gt;&lt;/tr&gt;&lt;/tbody&gt;&lt;/table&gt;" style="shape=partialRectangle;html=1;whiteSpace=wrap;connectable=0;strokeColor=inherit;overflow=hidden;fillColor=none;top=0;left=0;bottom=0;right=0;pointerEvents=1;fontSize=16;" vertex="1" parent="FSHCJqC_9t4m0_mm_uua-13">
          <mxGeometry x="250" width="190" height="185" as="geometry">
            <mxRectangle width="190" height="185" as="alternateBounds" />
          </mxGeometry>
        </mxCell>
        <mxCell id="FSHCJqC_9t4m0_mm_uua-34" value="Post" style="shape=table;startSize=30;container=1;collapsible=0;childLayout=tableLayout;strokeColor=default;fontSize=16;" vertex="1" parent="1">
          <mxGeometry y="-760" width="520" height="252" as="geometry" />
        </mxCell>
        <mxCell id="FSHCJqC_9t4m0_mm_uua-35" value="" style="shape=tableRow;horizontal=0;startSize=0;swimlaneHead=0;swimlaneBody=0;strokeColor=inherit;top=0;left=0;bottom=0;right=0;collapsible=0;dropTarget=0;fillColor=none;points=[[0,0.5],[1,0.5]];portConstraint=eastwest;fontSize=16;" vertex="1" parent="FSHCJqC_9t4m0_mm_uua-34">
          <mxGeometry y="30" width="520" height="37" as="geometry" />
        </mxCell>
        <mxCell id="FSHCJqC_9t4m0_mm_uua-36" value="Field" style="shape=partialRectangle;html=1;whiteSpace=wrap;connectable=0;strokeColor=inherit;overflow=hidden;fillColor=none;top=0;left=0;bottom=0;right=0;pointerEvents=1;fontSize=16;" vertex="1" parent="FSHCJqC_9t4m0_mm_uua-35">
          <mxGeometry width="100" height="37" as="geometry">
            <mxRectangle width="100" height="37" as="alternateBounds" />
          </mxGeometry>
        </mxCell>
        <mxCell id="FSHCJqC_9t4m0_mm_uua-37" value="DataType" style="shape=partialRectangle;html=1;whiteSpace=wrap;connectable=0;strokeColor=inherit;overflow=hidden;fillColor=none;top=0;left=0;bottom=0;right=0;pointerEvents=1;fontSize=16;" vertex="1" parent="FSHCJqC_9t4m0_mm_uua-35">
          <mxGeometry x="100" width="150" height="37" as="geometry">
            <mxRectangle width="150" height="37" as="alternateBounds" />
          </mxGeometry>
        </mxCell>
        <mxCell id="FSHCJqC_9t4m0_mm_uua-38" value="Key" style="shape=partialRectangle;html=1;whiteSpace=wrap;connectable=0;strokeColor=inherit;overflow=hidden;fillColor=none;top=0;left=0;bottom=0;right=0;pointerEvents=1;fontSize=16;" vertex="1" parent="FSHCJqC_9t4m0_mm_uua-35">
          <mxGeometry x="250" width="270" height="37" as="geometry">
            <mxRectangle width="270" height="37" as="alternateBounds" />
          </mxGeometry>
        </mxCell>
        <mxCell id="FSHCJqC_9t4m0_mm_uua-39" value="" style="shape=tableRow;horizontal=0;startSize=0;swimlaneHead=0;swimlaneBody=0;strokeColor=inherit;top=0;left=0;bottom=0;right=0;collapsible=0;dropTarget=0;fillColor=none;points=[[0,0.5],[1,0.5]];portConstraint=eastwest;fontSize=16;" vertex="1" parent="FSHCJqC_9t4m0_mm_uua-34">
          <mxGeometry y="67" width="520" height="185" as="geometry" />
        </mxCell>
        <mxCell id="FSHCJqC_9t4m0_mm_uua-40" value="&amp;nbsp; &amp;nbsp; &amp;nbsp; &amp;nbsp; &amp;nbsp; &amp;nbsp;post_id&lt;br&gt;user_id&lt;br&gt;title&lt;br&gt;content&lt;br&gt;date_created&lt;br&gt;&lt;br&gt;" style="shape=partialRectangle;html=1;whiteSpace=wrap;connectable=0;strokeColor=inherit;overflow=hidden;fillColor=none;top=0;left=0;bottom=0;right=0;pointerEvents=1;fontSize=16;" vertex="1" parent="FSHCJqC_9t4m0_mm_uua-39">
          <mxGeometry width="100" height="185" as="geometry">
            <mxRectangle width="100" height="185" as="alternateBounds" />
          </mxGeometry>
        </mxCell>
        <mxCell id="FSHCJqC_9t4m0_mm_uua-41" value="int&lt;br&gt;int&lt;br&gt;varchar(100)&lt;br&gt;text&lt;br&gt;datetime&lt;br&gt;" style="shape=partialRectangle;html=1;whiteSpace=wrap;connectable=0;strokeColor=inherit;overflow=hidden;fillColor=none;top=0;left=0;bottom=0;right=0;pointerEvents=1;fontSize=16;" vertex="1" parent="FSHCJqC_9t4m0_mm_uua-39">
          <mxGeometry x="100" width="150" height="185" as="geometry">
            <mxRectangle width="150" height="185" as="alternateBounds" />
          </mxGeometry>
        </mxCell>
        <mxCell id="FSHCJqC_9t4m0_mm_uua-42" value="&amp;nbsp; &lt;br&gt;primary Key&lt;br&gt;Foreign Key(references User user_id)&lt;br&gt;&lt;br&gt;&lt;br&gt;&lt;table&gt;&lt;tbody&gt;&lt;tr&gt;&lt;td&gt;&lt;br&gt;&lt;/td&gt;&lt;td&gt;&lt;br&gt;&lt;/td&gt;&lt;td&gt;&lt;br&gt;&lt;/td&gt;&lt;/tr&gt;&lt;tr&gt;&lt;td&gt;&lt;br&gt;&lt;/td&gt;&lt;td&gt;&lt;br&gt;&lt;/td&gt;&lt;td&gt;&lt;br&gt;&lt;/td&gt;&lt;/tr&gt;&lt;/tbody&gt;&lt;/table&gt;" style="shape=partialRectangle;html=1;whiteSpace=wrap;connectable=0;strokeColor=inherit;overflow=hidden;fillColor=none;top=0;left=0;bottom=0;right=0;pointerEvents=1;fontSize=16;" vertex="1" parent="FSHCJqC_9t4m0_mm_uua-39">
          <mxGeometry x="250" width="270" height="185" as="geometry">
            <mxRectangle width="270" height="185" as="alternateBounds" />
          </mxGeometry>
        </mxCell>
        <mxCell id="FSHCJqC_9t4m0_mm_uua-43" value="Comment" style="shape=table;startSize=30;container=1;collapsible=0;childLayout=tableLayout;strokeColor=default;fontSize=16;" vertex="1" parent="1">
          <mxGeometry x="20" y="-430" width="520" height="290" as="geometry" />
        </mxCell>
        <mxCell id="FSHCJqC_9t4m0_mm_uua-44" value="" style="shape=tableRow;horizontal=0;startSize=0;swimlaneHead=0;swimlaneBody=0;strokeColor=inherit;top=0;left=0;bottom=0;right=0;collapsible=0;dropTarget=0;fillColor=none;points=[[0,0.5],[1,0.5]];portConstraint=eastwest;fontSize=16;" vertex="1" parent="FSHCJqC_9t4m0_mm_uua-43">
          <mxGeometry y="30" width="520" height="40" as="geometry" />
        </mxCell>
        <mxCell id="FSHCJqC_9t4m0_mm_uua-45" value="Field" style="shape=partialRectangle;html=1;whiteSpace=wrap;connectable=0;strokeColor=inherit;overflow=hidden;fillColor=none;top=0;left=0;bottom=0;right=0;pointerEvents=1;fontSize=16;" vertex="1" parent="FSHCJqC_9t4m0_mm_uua-44">
          <mxGeometry width="100" height="40" as="geometry">
            <mxRectangle width="100" height="40" as="alternateBounds" />
          </mxGeometry>
        </mxCell>
        <mxCell id="FSHCJqC_9t4m0_mm_uua-46" value="DataType" style="shape=partialRectangle;html=1;whiteSpace=wrap;connectable=0;strokeColor=inherit;overflow=hidden;fillColor=none;top=0;left=0;bottom=0;right=0;pointerEvents=1;fontSize=16;" vertex="1" parent="FSHCJqC_9t4m0_mm_uua-44">
          <mxGeometry x="100" width="150" height="40" as="geometry">
            <mxRectangle width="150" height="40" as="alternateBounds" />
          </mxGeometry>
        </mxCell>
        <mxCell id="FSHCJqC_9t4m0_mm_uua-47" value="Key" style="shape=partialRectangle;html=1;whiteSpace=wrap;connectable=0;strokeColor=inherit;overflow=hidden;fillColor=none;top=0;left=0;bottom=0;right=0;pointerEvents=1;fontSize=16;" vertex="1" parent="FSHCJqC_9t4m0_mm_uua-44">
          <mxGeometry x="250" width="270" height="40" as="geometry">
            <mxRectangle width="270" height="40" as="alternateBounds" />
          </mxGeometry>
        </mxCell>
        <mxCell id="FSHCJqC_9t4m0_mm_uua-48" value="" style="shape=tableRow;horizontal=0;startSize=0;swimlaneHead=0;swimlaneBody=0;strokeColor=inherit;top=0;left=0;bottom=0;right=0;collapsible=0;dropTarget=0;fillColor=none;points=[[0,0.5],[1,0.5]];portConstraint=eastwest;fontSize=16;" vertex="1" parent="FSHCJqC_9t4m0_mm_uua-43">
          <mxGeometry y="70" width="520" height="220" as="geometry" />
        </mxCell>
        <mxCell id="FSHCJqC_9t4m0_mm_uua-49" value="&amp;nbsp; &amp;nbsp; &amp;nbsp; &amp;nbsp; &amp;nbsp; &amp;nbsp;&lt;br&gt;&lt;br&gt;Comment id&lt;br&gt;post_id&lt;br&gt;user_id&lt;br&gt;content&lt;br&gt;date_created" style="shape=partialRectangle;html=1;whiteSpace=wrap;connectable=0;strokeColor=inherit;overflow=hidden;fillColor=none;top=0;left=0;bottom=0;right=0;pointerEvents=1;fontSize=16;" vertex="1" parent="FSHCJqC_9t4m0_mm_uua-48">
          <mxGeometry width="100" height="220" as="geometry">
            <mxRectangle width="100" height="220" as="alternateBounds" />
          </mxGeometry>
        </mxCell>
        <mxCell id="FSHCJqC_9t4m0_mm_uua-50" value="&lt;br&gt;&lt;br&gt;int&lt;br&gt;int&lt;br&gt;int&lt;br&gt;text&lt;br&gt;datetime" style="shape=partialRectangle;html=1;whiteSpace=wrap;connectable=0;strokeColor=inherit;overflow=hidden;fillColor=none;top=0;left=0;bottom=0;right=0;pointerEvents=1;fontSize=16;" vertex="1" parent="FSHCJqC_9t4m0_mm_uua-48">
          <mxGeometry x="100" width="150" height="220" as="geometry">
            <mxRectangle width="150" height="220" as="alternateBounds" />
          </mxGeometry>
        </mxCell>
        <mxCell id="FSHCJqC_9t4m0_mm_uua-51" value="&amp;nbsp; &amp;nbsp; &amp;nbsp; &amp;nbsp; &amp;nbsp; &amp;nbsp; &amp;nbsp; &amp;nbsp;&lt;br&gt;&lt;br&gt;&lt;br&gt;&lt;br&gt;&amp;nbsp;primary key&lt;br&gt;Foreign Key(references User user_id)&lt;br&gt;Foreign Key(references Post post_id)&lt;br&gt;&lt;br&gt;&lt;br&gt;&lt;br&gt;&lt;table&gt;&lt;tbody&gt;&lt;tr&gt;&lt;td&gt;&lt;br&gt;&lt;/td&gt;&lt;td&gt;&lt;br&gt;&lt;/td&gt;&lt;td&gt;&lt;br&gt;&lt;/td&gt;&lt;/tr&gt;&lt;tr&gt;&lt;td&gt;&lt;br&gt;&lt;/td&gt;&lt;td&gt;&lt;br&gt;&lt;/td&gt;&lt;td&gt;&lt;br&gt;&lt;/td&gt;&lt;/tr&gt;&lt;/tbody&gt;&lt;/table&gt;" style="shape=partialRectangle;html=1;whiteSpace=wrap;connectable=0;strokeColor=inherit;overflow=hidden;fillColor=none;top=0;left=0;bottom=0;right=0;pointerEvents=1;fontSize=16;" vertex="1" parent="FSHCJqC_9t4m0_mm_uua-48">
          <mxGeometry x="250" width="270" height="220" as="geometry">
            <mxRectangle width="270" height="220" as="alternateBounds" />
          </mxGeometry>
        </mxCell>
        <mxCell id="FSHCJqC_9t4m0_mm_uua-65" value="Upvote" style="shape=table;startSize=30;container=1;collapsible=0;childLayout=tableLayout;strokeColor=default;fontSize=16;" vertex="1" parent="1">
          <mxGeometry x="40" y="-100" width="520" height="290" as="geometry" />
        </mxCell>
        <mxCell id="FSHCJqC_9t4m0_mm_uua-66" value="" style="shape=tableRow;horizontal=0;startSize=0;swimlaneHead=0;swimlaneBody=0;strokeColor=inherit;top=0;left=0;bottom=0;right=0;collapsible=0;dropTarget=0;fillColor=none;points=[[0,0.5],[1,0.5]];portConstraint=eastwest;fontSize=16;" vertex="1" parent="FSHCJqC_9t4m0_mm_uua-65">
          <mxGeometry y="30" width="520" height="40" as="geometry" />
        </mxCell>
        <mxCell id="FSHCJqC_9t4m0_mm_uua-67" value="Field" style="shape=partialRectangle;html=1;whiteSpace=wrap;connectable=0;strokeColor=inherit;overflow=hidden;fillColor=none;top=0;left=0;bottom=0;right=0;pointerEvents=1;fontSize=16;" vertex="1" parent="FSHCJqC_9t4m0_mm_uua-66">
          <mxGeometry width="100" height="40" as="geometry">
            <mxRectangle width="100" height="40" as="alternateBounds" />
          </mxGeometry>
        </mxCell>
        <mxCell id="FSHCJqC_9t4m0_mm_uua-68" value="DataType" style="shape=partialRectangle;html=1;whiteSpace=wrap;connectable=0;strokeColor=inherit;overflow=hidden;fillColor=none;top=0;left=0;bottom=0;right=0;pointerEvents=1;fontSize=16;" vertex="1" parent="FSHCJqC_9t4m0_mm_uua-66">
          <mxGeometry x="100" width="150" height="40" as="geometry">
            <mxRectangle width="150" height="40" as="alternateBounds" />
          </mxGeometry>
        </mxCell>
        <mxCell id="FSHCJqC_9t4m0_mm_uua-69" value="Key" style="shape=partialRectangle;html=1;whiteSpace=wrap;connectable=0;strokeColor=inherit;overflow=hidden;fillColor=none;top=0;left=0;bottom=0;right=0;pointerEvents=1;fontSize=16;" vertex="1" parent="FSHCJqC_9t4m0_mm_uua-66">
          <mxGeometry x="250" width="270" height="40" as="geometry">
            <mxRectangle width="270" height="40" as="alternateBounds" />
          </mxGeometry>
        </mxCell>
        <mxCell id="FSHCJqC_9t4m0_mm_uua-70" value="" style="shape=tableRow;horizontal=0;startSize=0;swimlaneHead=0;swimlaneBody=0;strokeColor=inherit;top=0;left=0;bottom=0;right=0;collapsible=0;dropTarget=0;fillColor=none;points=[[0,0.5],[1,0.5]];portConstraint=eastwest;fontSize=16;" vertex="1" parent="FSHCJqC_9t4m0_mm_uua-65">
          <mxGeometry y="70" width="520" height="220" as="geometry" />
        </mxCell>
        <mxCell id="FSHCJqC_9t4m0_mm_uua-71" value="&amp;nbsp; &amp;nbsp; &amp;nbsp; &amp;nbsp; &amp;nbsp; &amp;nbsp;&lt;br&gt;&lt;br&gt;upvote_id&lt;br&gt;post_id&lt;br&gt;user_id&lt;br&gt;&lt;br&gt;" style="shape=partialRectangle;html=1;whiteSpace=wrap;connectable=0;strokeColor=inherit;overflow=hidden;fillColor=none;top=0;left=0;bottom=0;right=0;pointerEvents=1;fontSize=16;" vertex="1" parent="FSHCJqC_9t4m0_mm_uua-70">
          <mxGeometry width="100" height="220" as="geometry">
            <mxRectangle width="100" height="220" as="alternateBounds" />
          </mxGeometry>
        </mxCell>
        <mxCell id="FSHCJqC_9t4m0_mm_uua-72" value="&lt;br&gt;&lt;br&gt;int&lt;br&gt;int&lt;br&gt;int&lt;br&gt;&lt;br&gt;" style="shape=partialRectangle;html=1;whiteSpace=wrap;connectable=0;strokeColor=inherit;overflow=hidden;fillColor=none;top=0;left=0;bottom=0;right=0;pointerEvents=1;fontSize=16;" vertex="1" parent="FSHCJqC_9t4m0_mm_uua-70">
          <mxGeometry x="100" width="150" height="220" as="geometry">
            <mxRectangle width="150" height="220" as="alternateBounds" />
          </mxGeometry>
        </mxCell>
        <mxCell id="FSHCJqC_9t4m0_mm_uua-73" value="&amp;nbsp; &amp;nbsp; &amp;nbsp; &amp;nbsp; &amp;nbsp; &amp;nbsp; &amp;nbsp; &amp;nbsp;&lt;br&gt;&lt;br&gt;&lt;br&gt;&lt;br&gt;&amp;nbsp;primary key&lt;br&gt;Foreign Key(references User user_id)&lt;br&gt;Foreign Key(references Post post_id)&lt;br&gt;&lt;br&gt;&lt;br&gt;&lt;br&gt;&lt;table&gt;&lt;tbody&gt;&lt;tr&gt;&lt;td&gt;&lt;br&gt;&lt;/td&gt;&lt;td&gt;&lt;br&gt;&lt;/td&gt;&lt;td&gt;&lt;br&gt;&lt;/td&gt;&lt;/tr&gt;&lt;tr&gt;&lt;td&gt;&lt;br&gt;&lt;/td&gt;&lt;td&gt;&lt;br&gt;&lt;/td&gt;&lt;td&gt;&lt;br&gt;&lt;/td&gt;&lt;/tr&gt;&lt;/tbody&gt;&lt;/table&gt;" style="shape=partialRectangle;html=1;whiteSpace=wrap;connectable=0;strokeColor=inherit;overflow=hidden;fillColor=none;top=0;left=0;bottom=0;right=0;pointerEvents=1;fontSize=16;" vertex="1" parent="FSHCJqC_9t4m0_mm_uua-70">
          <mxGeometry x="250" width="270" height="220" as="geometry">
            <mxRectangle width="270" height="220" as="alternateBounds" />
          </mxGeometry>
        </mxCell>
        <mxCell id="FSHCJqC_9t4m0_mm_uua-74" value="Downvote" style="shape=table;startSize=30;container=1;collapsible=0;childLayout=tableLayout;strokeColor=default;fontSize=16;" vertex="1" parent="1">
          <mxGeometry x="45" y="220" width="510" height="290" as="geometry" />
        </mxCell>
        <mxCell id="FSHCJqC_9t4m0_mm_uua-75" value="" style="shape=tableRow;horizontal=0;startSize=0;swimlaneHead=0;swimlaneBody=0;strokeColor=inherit;top=0;left=0;bottom=0;right=0;collapsible=0;dropTarget=0;fillColor=none;points=[[0,0.5],[1,0.5]];portConstraint=eastwest;fontSize=16;" vertex="1" parent="FSHCJqC_9t4m0_mm_uua-74">
          <mxGeometry y="30" width="510" height="40" as="geometry" />
        </mxCell>
        <mxCell id="FSHCJqC_9t4m0_mm_uua-76" value="Field" style="shape=partialRectangle;html=1;whiteSpace=wrap;connectable=0;strokeColor=inherit;overflow=hidden;fillColor=none;top=0;left=0;bottom=0;right=0;pointerEvents=1;fontSize=16;" vertex="1" parent="FSHCJqC_9t4m0_mm_uua-75">
          <mxGeometry width="100" height="40" as="geometry">
            <mxRectangle width="100" height="40" as="alternateBounds" />
          </mxGeometry>
        </mxCell>
        <mxCell id="FSHCJqC_9t4m0_mm_uua-77" value="DataType" style="shape=partialRectangle;html=1;whiteSpace=wrap;connectable=0;strokeColor=inherit;overflow=hidden;fillColor=none;top=0;left=0;bottom=0;right=0;pointerEvents=1;fontSize=16;" vertex="1" parent="FSHCJqC_9t4m0_mm_uua-75">
          <mxGeometry x="100" width="130" height="40" as="geometry">
            <mxRectangle width="130" height="40" as="alternateBounds" />
          </mxGeometry>
        </mxCell>
        <mxCell id="FSHCJqC_9t4m0_mm_uua-78" value="Key" style="shape=partialRectangle;html=1;whiteSpace=wrap;connectable=0;strokeColor=inherit;overflow=hidden;fillColor=none;top=0;left=0;bottom=0;right=0;pointerEvents=1;fontSize=16;" vertex="1" parent="FSHCJqC_9t4m0_mm_uua-75">
          <mxGeometry x="230" width="280" height="40" as="geometry">
            <mxRectangle width="280" height="40" as="alternateBounds" />
          </mxGeometry>
        </mxCell>
        <mxCell id="FSHCJqC_9t4m0_mm_uua-79" value="" style="shape=tableRow;horizontal=0;startSize=0;swimlaneHead=0;swimlaneBody=0;strokeColor=inherit;top=0;left=0;bottom=0;right=0;collapsible=0;dropTarget=0;fillColor=none;points=[[0,0.5],[1,0.5]];portConstraint=eastwest;fontSize=16;" vertex="1" parent="FSHCJqC_9t4m0_mm_uua-74">
          <mxGeometry y="70" width="510" height="220" as="geometry" />
        </mxCell>
        <mxCell id="FSHCJqC_9t4m0_mm_uua-80" value="&amp;nbsp; &amp;nbsp; &amp;nbsp; &amp;nbsp; &amp;nbsp; &amp;nbsp;&lt;br&gt;&lt;br&gt;downvote_ id&lt;br&gt;post_id&lt;br&gt;user_id&lt;br&gt;&lt;br&gt;" style="shape=partialRectangle;html=1;whiteSpace=wrap;connectable=0;strokeColor=inherit;overflow=hidden;fillColor=none;top=0;left=0;bottom=0;right=0;pointerEvents=1;fontSize=16;" vertex="1" parent="FSHCJqC_9t4m0_mm_uua-79">
          <mxGeometry width="100" height="220" as="geometry">
            <mxRectangle width="100" height="220" as="alternateBounds" />
          </mxGeometry>
        </mxCell>
        <mxCell id="FSHCJqC_9t4m0_mm_uua-81" value="&lt;br&gt;&lt;br&gt;int&lt;br&gt;int&lt;br&gt;int&lt;br&gt;&lt;br&gt;" style="shape=partialRectangle;html=1;whiteSpace=wrap;connectable=0;strokeColor=inherit;overflow=hidden;fillColor=none;top=0;left=0;bottom=0;right=0;pointerEvents=1;fontSize=16;" vertex="1" parent="FSHCJqC_9t4m0_mm_uua-79">
          <mxGeometry x="100" width="130" height="220" as="geometry">
            <mxRectangle width="130" height="220" as="alternateBounds" />
          </mxGeometry>
        </mxCell>
        <mxCell id="FSHCJqC_9t4m0_mm_uua-82" value="&amp;nbsp; &amp;nbsp; &amp;nbsp; &amp;nbsp; &amp;nbsp; &amp;nbsp; &amp;nbsp; &amp;nbsp;&lt;br&gt;&lt;br&gt;&lt;br&gt;&lt;br&gt;&amp;nbsp;&lt;br&gt;primary key&lt;br&gt;Foreign Key(references User user_id)&lt;br&gt;Foreign Key(references Post post_id)&lt;br&gt;&lt;br&gt;&lt;br&gt;&lt;br&gt;&lt;table&gt;&lt;tbody&gt;&lt;tr&gt;&lt;td&gt;&lt;br&gt;&lt;/td&gt;&lt;td&gt;&lt;br&gt;&lt;/td&gt;&lt;td&gt;&lt;br&gt;&lt;/td&gt;&lt;/tr&gt;&lt;tr&gt;&lt;td&gt;&lt;br&gt;&lt;/td&gt;&lt;td&gt;&lt;br&gt;&lt;/td&gt;&lt;td&gt;&lt;br&gt;&lt;/td&gt;&lt;/tr&gt;&lt;/tbody&gt;&lt;/table&gt;" style="shape=partialRectangle;html=1;whiteSpace=wrap;connectable=0;strokeColor=inherit;overflow=hidden;fillColor=none;top=0;left=0;bottom=0;right=0;pointerEvents=1;fontSize=16;" vertex="1" parent="FSHCJqC_9t4m0_mm_uua-79">
          <mxGeometry x="230" width="280" height="220" as="geometry">
            <mxRectangle width="280" height="220" as="alternateBounds" />
          </mxGeometry>
        </mxCell>
        <mxCell id="FSHCJqC_9t4m0_mm_uua-83" value="&amp;nbsp; &amp;nbsp; &amp;nbsp; &amp;nbsp; &amp;nbsp; &amp;nbsp; &amp;nbsp; &amp;nbsp; &amp;nbsp; &amp;nbsp; &amp;nbsp; &amp;nbsp; &amp;nbsp; &amp;nbsp; &amp;nbsp; &amp;nbsp; &amp;nbsp; &amp;nbsp; &amp;nbsp; &amp;nbsp; &amp;nbsp; &amp;nbsp; &amp;nbsp; &amp;nbsp; &amp;nbsp; &amp;nbsp; &amp;nbsp;&lt;b style=&quot;font-size: 17px;&quot;&gt;Cardinality Realtion&lt;/b&gt;" style="text;html=1;align=center;verticalAlign=middle;resizable=0;points=[];autosize=1;strokeColor=none;fillColor=none;" vertex="1" parent="1">
          <mxGeometry x="30" y="590" width="360" height="30" as="geometry" />
        </mxCell>
        <mxCell id="ZqGrM8Np1VP_XshSODhZ-4" value="One-to-Many Relationship between User and Post&lt;br&gt;&lt;br&gt;&lt;br&gt;&lt;b&gt;User&lt;/b&gt;&amp;nbsp; &amp;nbsp; &amp;nbsp; &amp;nbsp; &amp;nbsp; &amp;nbsp; &amp;nbsp; &amp;nbsp; &amp;nbsp; &amp;nbsp; &amp;nbsp; &amp;nbsp; &amp;nbsp; &amp;nbsp; &amp;nbsp;&lt;b&gt;Post&lt;/b&gt;&lt;br&gt;user_id (PK)&amp;nbsp; &amp;nbsp; &amp;nbsp; &amp;nbsp; &amp;nbsp; &amp;nbsp; &amp;nbsp; &amp;nbsp; &amp;nbsp;post_id (PK)&lt;br&gt;username&amp;nbsp; &amp;nbsp; &amp;nbsp; &amp;nbsp; &amp;nbsp; &amp;nbsp; &amp;nbsp; &amp;nbsp; &amp;nbsp; &amp;nbsp; &amp;nbsp;user_id (FK)&lt;br&gt;email&amp;nbsp; &amp;nbsp; &amp;nbsp; &amp;nbsp; &amp;nbsp; &amp;nbsp; &amp;nbsp; &amp;nbsp; &amp;nbsp; &amp;nbsp; &amp;nbsp; &amp;nbsp; &amp;nbsp; &amp;nbsp; &amp;nbsp; &amp;nbsp; &amp;nbsp; &amp;nbsp;title&lt;br&gt;password&amp;nbsp; &amp;nbsp; &amp;nbsp; &amp;nbsp; &amp;nbsp; &amp;nbsp; &amp;nbsp; &amp;nbsp; &amp;nbsp; &amp;nbsp; &amp;nbsp; &amp;nbsp;content&lt;br&gt;date_created&amp;nbsp; &amp;nbsp; &amp;nbsp; &amp;nbsp; &amp;nbsp; &amp;nbsp; &amp;nbsp;date_created&amp;nbsp;&lt;br&gt;&lt;br&gt;&lt;br&gt;&lt;br&gt;One-to-Many Relationship between User and Comment&lt;br&gt;&lt;br&gt;&lt;br&gt;&lt;b&gt;User&lt;/b&gt;&amp;nbsp; &amp;nbsp; &amp;nbsp; &amp;nbsp; &amp;nbsp; &amp;nbsp; &amp;nbsp; &amp;nbsp; &amp;nbsp; &amp;nbsp; &amp;nbsp; &amp;nbsp; &amp;nbsp; &amp;nbsp; &amp;nbsp; &amp;nbsp; &amp;nbsp; &amp;nbsp; &amp;nbsp; &amp;nbsp; &amp;nbsp; &amp;nbsp; &amp;nbsp; &amp;nbsp; &amp;nbsp; &lt;b&gt;Comment&lt;/b&gt;&lt;br&gt;user_id (PK)&amp;nbsp; &amp;nbsp; &amp;nbsp; &amp;nbsp; &amp;nbsp; &amp;nbsp; &amp;nbsp; &amp;nbsp; &amp;nbsp; &amp;nbsp; &amp;nbsp; &amp;nbsp; &amp;nbsp; comment_id (PK)&lt;br&gt;username&amp;nbsp; &amp;nbsp; &amp;nbsp; &amp;nbsp; &amp;nbsp; &amp;nbsp; &amp;nbsp; &amp;nbsp; &amp;nbsp; &amp;nbsp; &amp;nbsp; &amp;nbsp; &amp;nbsp; &amp;nbsp; &amp;nbsp; &amp;nbsp; &amp;nbsp; user_id (FK)&lt;br&gt;email&amp;nbsp; &amp;nbsp; &amp;nbsp; &amp;nbsp; &amp;nbsp; &amp;nbsp; &amp;nbsp; &amp;nbsp; &amp;nbsp; &amp;nbsp; &amp;nbsp; &amp;nbsp; &amp;nbsp; &amp;nbsp; &amp;nbsp; &amp;nbsp; &amp;nbsp; &amp;nbsp; &amp;nbsp; &amp;nbsp; &amp;nbsp; &amp;nbsp; &amp;nbsp;post_id (FK)&lt;br&gt;password&amp;nbsp; &amp;nbsp; &amp;nbsp; &amp;nbsp; &amp;nbsp; &amp;nbsp; &amp;nbsp; &amp;nbsp; &amp;nbsp; &amp;nbsp; &amp;nbsp; &amp;nbsp; &amp;nbsp; &amp;nbsp; &amp;nbsp; &amp;nbsp; &amp;nbsp; &amp;nbsp; &amp;nbsp; &amp;nbsp; &amp;nbsp; content&lt;br&gt;date_created&amp;nbsp; &amp;nbsp; &amp;nbsp; &amp;nbsp; &amp;nbsp; &amp;nbsp; &amp;nbsp; &amp;nbsp; &amp;nbsp; &amp;nbsp; &amp;nbsp; &amp;nbsp; &amp;nbsp; &amp;nbsp; date_created&lt;br&gt;&lt;br&gt;&lt;br&gt;One-to-Many Relationship between Post and Comment&lt;br&gt;&lt;br&gt;&lt;br&gt;&lt;b&gt;Post&lt;/b&gt;&amp;nbsp; &amp;nbsp; &amp;nbsp; &amp;nbsp; &amp;nbsp; &amp;nbsp; &amp;nbsp; &amp;nbsp; &amp;nbsp; &amp;nbsp; &amp;nbsp; &amp;nbsp; &amp;nbsp; &amp;nbsp; &amp;nbsp; &amp;nbsp; &amp;nbsp; &amp;nbsp; &amp;nbsp; &amp;nbsp; &amp;nbsp; &amp;nbsp; &amp;nbsp; &lt;b&gt;Comment&lt;/b&gt;&lt;br&gt;post_id (PK)&amp;nbsp; &amp;nbsp; &amp;nbsp; &amp;nbsp; &amp;nbsp; &amp;nbsp; &amp;nbsp; &amp;nbsp; &amp;nbsp; &amp;nbsp; &amp;nbsp; &amp;nbsp; &amp;nbsp; &amp;nbsp;comment_id (PK)&lt;br&gt;user_id (FK)&amp;nbsp; &amp;nbsp; &amp;nbsp; &amp;nbsp; &amp;nbsp; &amp;nbsp; &amp;nbsp; &amp;nbsp; &amp;nbsp; &amp;nbsp; &amp;nbsp; &amp;nbsp; &amp;nbsp; &amp;nbsp;user_id (FK)&lt;br&gt;title&amp;nbsp; &amp;nbsp; &amp;nbsp; &amp;nbsp; &amp;nbsp; &amp;nbsp; &amp;nbsp; &amp;nbsp; &amp;nbsp; &amp;nbsp; &amp;nbsp; &amp;nbsp; &amp;nbsp; &amp;nbsp; &amp;nbsp; &amp;nbsp; &amp;nbsp; &amp;nbsp; &amp;nbsp; &amp;nbsp; &amp;nbsp; &amp;nbsp; post_id (FK)&lt;br&gt;content&amp;nbsp; &amp;nbsp; &amp;nbsp; &amp;nbsp; &amp;nbsp; &amp;nbsp; &amp;nbsp; &amp;nbsp; &amp;nbsp; &amp;nbsp; &amp;nbsp; &amp;nbsp; &amp;nbsp; &amp;nbsp; &amp;nbsp; &amp;nbsp; &amp;nbsp; &amp;nbsp; &amp;nbsp; &amp;nbsp; &amp;nbsp;content&lt;br&gt;date_created&amp;nbsp; &amp;nbsp; &amp;nbsp; &amp;nbsp; &amp;nbsp; &amp;nbsp; &amp;nbsp; &amp;nbsp; &amp;nbsp; &amp;nbsp; &amp;nbsp; &amp;nbsp; &amp;nbsp; date_created&lt;br&gt;&amp;nbsp;&lt;br&gt;&lt;br&gt;One-to-Many Relationship between User and Upvote&lt;br&gt;&lt;br&gt;&lt;br&gt;&lt;b&gt;User&lt;/b&gt;&amp;nbsp; &amp;nbsp; &amp;nbsp; &amp;nbsp; &amp;nbsp; &amp;nbsp; &amp;nbsp; &amp;nbsp; &amp;nbsp; &amp;nbsp; &amp;nbsp; &amp;nbsp; &amp;nbsp; &amp;nbsp; &amp;nbsp; &amp;nbsp; &amp;nbsp; &amp;nbsp; &amp;nbsp; &amp;nbsp; &amp;nbsp; &amp;nbsp; &amp;nbsp; &amp;nbsp; &amp;nbsp; &amp;nbsp;&lt;b&gt;Upvote&lt;/b&gt;&lt;br&gt;user_id (PK)&amp;nbsp; &amp;nbsp; &amp;nbsp; &amp;nbsp; &amp;nbsp; &amp;nbsp; &amp;nbsp; &amp;nbsp; &amp;nbsp; &amp;nbsp; &amp;nbsp; &amp;nbsp; &amp;nbsp; &amp;nbsp; &amp;nbsp; upvote_id (PK)&lt;br&gt;username&amp;nbsp; &amp;nbsp; &amp;nbsp; &amp;nbsp; &amp;nbsp; &amp;nbsp; &amp;nbsp; &amp;nbsp; &amp;nbsp; &amp;nbsp; &amp;nbsp; &amp;nbsp; &amp;nbsp; &amp;nbsp; &amp;nbsp; &amp;nbsp; &amp;nbsp; &amp;nbsp; user_id (FK)&lt;br&gt;email&amp;nbsp; &amp;nbsp; &amp;nbsp; &amp;nbsp; &amp;nbsp; &amp;nbsp; &amp;nbsp; &amp;nbsp; &amp;nbsp; &amp;nbsp; &amp;nbsp; &amp;nbsp; &amp;nbsp; &amp;nbsp; &amp;nbsp; &amp;nbsp; &amp;nbsp; &amp;nbsp; &amp;nbsp; &amp;nbsp; &amp;nbsp; &amp;nbsp; post_id (FK)&lt;br&gt;password	&lt;br&gt;date_created	&lt;br&gt;&lt;br&gt;&lt;br&gt;&lt;br&gt;One-to-Many Relationship between User and Downvote&lt;br&gt;&lt;br&gt;&lt;br&gt;&lt;b&gt;User&lt;/b&gt;&amp;nbsp; &amp;nbsp; &amp;nbsp; &amp;nbsp; &amp;nbsp; &amp;nbsp; &amp;nbsp; &amp;nbsp; &amp;nbsp; &amp;nbsp; &amp;nbsp; &amp;nbsp; &amp;nbsp; &amp;nbsp; &amp;nbsp; &amp;nbsp; &amp;nbsp; &amp;nbsp;&lt;b&gt;Downvote&lt;/b&gt;&lt;br&gt;user_id (PK)&amp;nbsp; &amp;nbsp; &amp;nbsp; &amp;nbsp; &amp;nbsp; &amp;nbsp; &amp;nbsp; &amp;nbsp; &amp;nbsp; &amp;nbsp; downvote_id (PK)&lt;br&gt;username&amp;nbsp; &amp;nbsp; &amp;nbsp; &amp;nbsp; &amp;nbsp; &amp;nbsp; &amp;nbsp; &amp;nbsp; &amp;nbsp; &amp;nbsp; &amp;nbsp; &amp;nbsp; &amp;nbsp; &amp;nbsp; &amp;nbsp; &amp;nbsp;user_id (FK)&lt;br&gt;email&amp;nbsp; &amp;nbsp; &amp;nbsp; &amp;nbsp; &amp;nbsp; &amp;nbsp; &amp;nbsp; &amp;nbsp; &amp;nbsp; &amp;nbsp; &amp;nbsp; &amp;nbsp; &amp;nbsp; &amp;nbsp; &amp;nbsp; &amp;nbsp; &amp;nbsp; &amp;nbsp; &amp;nbsp; &amp;nbsp;post_id (FK)&lt;br&gt;password	&lt;br&gt;date_created" style="text;whiteSpace=wrap;html=1;fontSize=14;" vertex="1" parent="1">
          <mxGeometry x="170" y="660" width="330" height="670" as="geometry" />
        </mxCell>
        <mxCell id="ZqGrM8Np1VP_XshSODhZ-21" value="" style="line;strokeWidth=1;rotatable=0;dashed=0;labelPosition=right;align=left;verticalAlign=middle;spacingTop=0;spacingLeft=6;points=[];portConstraint=eastwest;" vertex="1" parent="1">
          <mxGeometry x="180" y="640" width="300" height="10" as="geometry" />
        </mxCell>
        <mxCell id="ZqGrM8Np1VP_XshSODhZ-22" value="" style="line;strokeWidth=1;rotatable=0;dashed=0;labelPosition=right;align=left;verticalAlign=middle;spacingTop=0;spacingLeft=6;points=[];portConstraint=eastwest;" vertex="1" parent="1">
          <mxGeometry x="160" y="840" width="320" height="10" as="geometry" />
        </mxCell>
        <mxCell id="ZqGrM8Np1VP_XshSODhZ-23" value="" style="line;strokeWidth=1;rotatable=0;dashed=0;labelPosition=right;align=left;verticalAlign=middle;spacingTop=0;spacingLeft=6;points=[];portConstraint=eastwest;" vertex="1" parent="1">
          <mxGeometry x="160" y="1420" width="320" height="100" as="geometry" />
        </mxCell>
        <mxCell id="ZqGrM8Np1VP_XshSODhZ-24" value="" style="line;strokeWidth=1;rotatable=0;dashed=0;labelPosition=right;align=left;verticalAlign=middle;spacingTop=0;spacingLeft=6;points=[];portConstraint=eastwest;" vertex="1" parent="1">
          <mxGeometry x="150" y="1260" width="320" height="10" as="geometry" />
        </mxCell>
        <mxCell id="ZqGrM8Np1VP_XshSODhZ-26" value="" style="line;strokeWidth=1;rotatable=0;dashed=0;labelPosition=right;align=left;verticalAlign=middle;spacingTop=0;spacingLeft=6;points=[];portConstraint=eastwest;" vertex="1" parent="1">
          <mxGeometry x="160" y="1050" width="320" height="10" as="geometry" />
        </mxCell>
        <mxCell id="ZqGrM8Np1VP_XshSODhZ-27" value="" style="line;strokeWidth=1;rotatable=0;dashed=0;labelPosition=right;align=left;verticalAlign=middle;spacingTop=0;spacingLeft=6;points=[];portConstraint=eastwest;" vertex="1" parent="1">
          <mxGeometry x="150" y="1680" width="320" height="10" as="geometry" />
        </mxCell>
      </root>
    </mxGraphModel>
  </diagram>
  <diagram id="wsYMr_MqxTCOr_Q9GfJO" name="Page-2">
    <mxGraphModel dx="1050" dy="515" grid="1" gridSize="10" guides="1" tooltips="1" connect="1" arrows="1" fold="1" page="1" pageScale="1" pageWidth="850" pageHeight="1100" math="0" shadow="0">
      <root>
        <mxCell id="0" />
        <mxCell id="1" parent="0" />
      </root>
    </mxGraphModel>
  </diagram>
</mxfile>
